# xmcd
#
# Track frame offsets:
#	150
#	17497
#	36834
#	55336
#	71155
#	91007
#	110327
#	133587
#	154115
#	174186
#	191116
#	207284
#	225547
#
# Disc length: 3246 seconds
# Revision: 0
# Processed by: cddbd v1.5.2PL0 Copyright (c) Steve Scherf et al.
# Submitted via: dBpowerAMP V12.0
#
DISCID=a60cac0d
DTITLE=Ill Niño - Enigma
DYEAR=2008
DGENRE=Metal
TTITLE0=The Alibi of Tyrants
TTITLE1=Pieces of the Sun
TTITLE2=Finger Painting (With the Enemy)
TTITLE3=March Against Me
TTITLE4=Compulsion of Virus and Fever
TTITLE5=Formal Obsession
TTITLE6=Hot Summer's Tragedy
TTITLE7=Me Gusta La Soledad
TTITLE8=2012
TTITLE9=Guerrilla Carnival
TTITLE10=Estoy Perdido
TTITLE11=Kellogg's, Bombs, and Cracker Jacks
TTITLE12=De Sangre Hermosa
EXTD=
EXTT0=
EXTT1=
EXTT2=
EXTT3=
EXTT4=
EXTT5=
EXTT6=
EXTT7=
EXTT8=
EXTT9=
EXTT10=
EXTT11=
EXTT12=
PLAYORDER=
